# Blender 3.3.0
# www.blender.org
mtllib heavy.mtl
o Player_Ship
v 4.212814 0.212512 -1.838194
v 4.212814 -0.313044 -1.838194
v 0.886776 0.207862 3.777998
v 0.886776 -0.313044 3.777998
v 0.000000 -0.313044 -2.546683
v 0.000000 0.367812 3.069510
v 0.000000 -0.313044 3.069510
v 0.000000 0.629194 -2.546683
v 0.733005 -0.313044 3.069510
v 2.749553 0.357240 -2.546683
v 2.749553 -0.313044 -2.546683
v 0.733005 0.371007 3.069510
v 0.733005 0.371007 3.069510
v 0.000000 0.367812 3.069510
v 0.000000 1.942032 -2.546683
v 2.749553 0.357240 -2.546683
v 4.212814 0.212512 -4.805579
v 4.212814 -0.313044 -4.805579
v 2.749553 0.138276 -4.805579
v 2.749553 -0.138276 -4.805579
v 0.000000 -0.242004 -4.805579
v 0.000000 0.629194 -4.805579
v 2.207298 -0.313044 -2.546683
v 0.588445 0.362268 3.069510
v 0.588445 -0.313044 3.069510
v 2.207298 0.410874 -2.546683
v 0.588445 0.362268 3.069510
v 1.505542 1.449787 -2.546683
v 2.207298 -0.158646 -4.805579
v 2.207298 0.158646 -4.805579
v 0.000000 -0.313137 4.839643
v 0.000000 -0.313137 4.839643
v 5.302790 0.104704 -1.838194
v 5.302790 -0.313044 -1.838194
v 5.031649 0.058623 -4.805579
v 5.031649 -0.058623 -4.805579
v 2.749553 0.357240 -4.805579
v 4.212814 0.084284 -4.805579
v 2.207298 -0.313044 -4.805579
v 0.000000 -0.313044 -4.805579
v 2.207298 0.410874 -4.805579
v 4.212814 -0.084284 -4.805579
v 2.749553 -0.313044 -4.805579
v 0.000000 0.242004 -4.805579
v 5.302790 0.104704 -4.805579
v 5.302790 -0.313044 -4.805579
v 4.212814 0.095828 -3.911375
v 4.212814 -0.095828 -3.911375
v 0.000000 0.244837 -3.911375
v 0.000000 -0.244837 -3.911375
v 2.749553 0.143979 -3.911375
v 2.749553 -0.143979 -3.911375
v 2.207298 0.163411 -3.911375
v 2.207298 -0.163411 -3.911375
v 5.031649 0.078801 -3.911375
v 5.031649 -0.078801 -3.911375
v 0.000000 0.229966 4.804382
v 0.000000 -0.313044 4.804382
v 0.000000 -0.313044 4.804382
v 0.000000 0.229966 4.804382
v 0.000000 0.229966 4.804382
v 0.000000 -0.313044 4.804382
v 0.000000 0.229966 4.804382
v 0.000000 -0.313044 4.804382
v -0.364980 -0.229074 2.946699
v -0.364980 0.140144 4.827529
v -0.364980 -0.229074 2.832136
v -0.364980 0.140144 2.832136
v 0.364980 -0.229074 2.946699
v 0.364980 0.140144 4.827529
v 0.364980 -0.229074 2.832136
v 0.364980 0.140144 2.832136
v 0.254987 -0.087867 4.827529
v 0.254987 0.099691 4.827529
v -0.254987 0.099691 4.827529
v -0.254987 -0.087867 4.827529
v 0.254987 0.099691 4.610268
v 0.254987 -0.087867 4.610268
v -0.254987 -0.087867 4.610268
v -0.254987 0.099691 4.610268
v 0.191425 -0.064490 4.610268
v 0.191425 0.076314 4.610268
v -0.191425 0.076314 4.610268
v -0.191425 -0.064490 4.610268
v 0.144997 0.059239 5.109415
v 0.144997 -0.047415 5.109415
v -0.144997 -0.047415 5.109415
v -0.144997 0.059239 5.109415
v 0.191425 0.076314 5.109415
v 0.191425 -0.064490 5.109415
v -0.191425 -0.064490 5.109415
v -0.191425 0.076314 5.109415
v 0.144997 0.059239 4.839189
v 0.144997 -0.047415 4.839189
v -0.144997 -0.047415 4.839189
v -0.144997 0.059239 4.839189
v 0.087215 -0.026164 4.839189
v 0.087215 0.037988 4.839189
v -0.087215 0.037988 4.839189
v -0.087215 -0.026164 4.839189
v 0.045007 0.022464 5.496367
v 0.045007 -0.010641 5.496367
v -0.045007 -0.010641 5.496367
v -0.045007 0.022464 5.496367
v 0.087215 0.037988 5.496367
v 0.087215 -0.026164 5.496367
v -0.087215 -0.026164 5.496367
v -0.087215 0.037988 5.496367
v 0.045007 0.022464 5.093737
v 0.045007 -0.010641 5.093737
v -0.045007 -0.010641 5.093737
v -0.045007 0.022464 5.093737
v -4.212814 0.212512 -1.838194
v -4.212814 -0.313044 -1.838194
v -0.886776 0.207862 3.777998
v -0.886776 -0.313044 3.777998
v -0.733005 -0.313044 3.069510
v -2.749553 0.357240 -2.546683
v -2.749553 -0.313044 -2.546683
v -0.733005 0.371007 3.069510
v -0.733005 0.371007 3.069510
v -2.749553 0.357240 -2.546683
v -4.212814 0.212512 -4.805579
v -4.212814 -0.313044 -4.805579
v -2.749553 0.138276 -4.805579
v -2.749553 -0.138276 -4.805579
v -2.207298 -0.313044 -2.546683
v -0.588445 0.362268 3.069510
v -0.588445 -0.313044 3.069510
v -2.207298 0.410874 -2.546683
v -0.588445 0.362268 3.069510
v -1.505542 1.449787 -2.546683
v -2.207298 -0.158646 -4.805579
v -2.207298 0.158646 -4.805579
v -5.302790 0.104704 -1.838194
v -5.302790 -0.313044 -1.838194
v -5.031649 0.058623 -4.805579
v -5.031649 -0.058623 -4.805579
v -2.749553 0.357240 -4.805579
v -4.212814 0.084284 -4.805579
v -2.207298 -0.313044 -4.805579
v -2.207298 0.410874 -4.805579
v -4.212814 -0.084284 -4.805579
v -2.749553 -0.313044 -4.805579
v -5.302790 0.104704 -4.805579
v -5.302790 -0.313044 -4.805579
v -4.212814 0.095828 -3.911375
v -4.212814 -0.095828 -3.911375
v -2.749553 0.143979 -3.911375
v -2.749553 -0.143979 -3.911375
v -2.207298 0.163411 -3.911375
v -2.207298 -0.163411 -3.911375
v -5.031649 0.078801 -3.911375
v -5.031649 -0.078801 -3.911375
v 0.364980 -0.229074 2.946699
v 0.364980 0.140144 4.827529
v 0.364980 -0.229074 2.832136
v 0.364980 0.140144 2.832136
v -0.364980 -0.229074 2.946699
v -0.364980 0.140144 4.827529
v -0.364980 -0.229074 2.832136
v -0.364980 0.140144 2.832136
v -0.254987 -0.087867 4.827529
v -0.254987 0.099691 4.827529
v 0.254987 0.099691 4.827529
v 0.254987 -0.087867 4.827529
v -0.254987 0.099691 4.610268
v -0.254987 -0.087867 4.610268
v 0.254987 -0.087867 4.610268
v 0.254987 0.099691 4.610268
v -0.191425 -0.064490 4.610268
v -0.191425 0.076314 4.610268
v 0.191425 0.076314 4.610268
v 0.191425 -0.064490 4.610268
v -0.144997 0.059239 5.109415
v -0.144997 -0.047415 5.109415
v 0.144997 -0.047415 5.109415
v 0.144997 0.059239 5.109415
v -0.191425 0.076314 5.109415
v -0.191425 -0.064490 5.109415
v 0.191425 -0.064490 5.109415
v 0.191425 0.076314 5.109415
v -0.144997 0.059239 4.839189
v -0.144997 -0.047415 4.839189
v 0.144997 -0.047415 4.839189
v 0.144997 0.059239 4.839189
v -0.087215 -0.026164 4.839189
v -0.087215 0.037988 4.839189
v 0.087215 0.037988 4.839189
v 0.087215 -0.026164 4.839189
v -0.045007 0.022464 5.496367
v -0.045007 -0.010641 5.496367
v 0.045007 -0.010641 5.496367
v 0.045007 0.022464 5.496367
v -0.087215 0.037988 5.496367
v -0.087215 -0.026164 5.496367
v 0.087215 -0.026164 5.496367
v 0.087215 0.037988 5.496367
v -0.045007 0.022464 5.093737
v -0.045007 -0.010641 5.093737
v 0.045007 -0.010641 5.093737
v 0.045007 0.022464 5.093737
vn -0.0000 -1.0000 -0.0000
vn 0.8604 -0.0000 0.5096
vn 0.8134 -0.0000 0.5817
vn 0.8136 -0.0000 0.5814
vn 0.0848 0.9963 0.0162
vn 0.1087 0.9939 0.0183
vn 0.0984 0.9951 -0.0000
vn 0.0612 0.9969 0.0485
vn -0.0000 1.0000 -0.0000
vn 0.1922 0.9722 0.1340
vn 0.4479 0.8612 0.2401
vn -0.0000 0.9687 0.2483
vn -0.0000 0.9922 0.1245
vn 0.2096 0.9696 0.1265
vn -0.0000 -0.0000 -1.0000
vn -0.0179 0.9993 0.0320
vn -0.0305 -0.9994 0.0137
vn -0.0261 -0.9995 0.0177
vn -0.0358 -0.9993 0.0077
vn -0.0305 0.9994 0.0137
vn -0.0358 0.9993 0.0077
vn -0.0000 0.9992 0.0396
vn 0.5988 0.7672 0.2297
vn 1.0000 -0.0000 -0.0000
vn -0.0000 -0.0000 1.0000
vn -1.0000 -0.0000 -0.0000
vn -0.0370 0.9993 0.0050
vn -0.0000 1.0000 0.0042
vn -0.0261 0.9995 0.0177
vn -0.0000 -1.0000 0.0042
vn -0.0370 -0.9993 0.0050
vn 0.7567 -0.0000 0.6538
vn -0.0255 0.9974 0.0674
vn 0.0835 0.9898 0.1158
vn -0.0000 0.9969 0.0792
vn 0.2235 0.9593 0.1724
vn 0.8933 -0.4309 0.1276
vn -0.8933 -0.4309 0.1276
vn -0.0000 -0.9972 0.0749
vn -0.8604 -0.0000 0.5096
vn -0.8136 -0.0000 0.5814
vn -0.8134 -0.0000 0.5817
vn -0.0848 0.9963 0.0162
vn -0.0984 0.9951 -0.0000
vn -0.1087 0.9939 0.0183
vn -0.0612 0.9969 0.0485
vn -0.1922 0.9722 0.1340
vn -0.4479 0.8612 0.2401
vn -0.2096 0.9696 0.1265
vn 0.0179 0.9993 0.0320
vn 0.0305 -0.9994 0.0137
vn 0.0261 -0.9995 0.0177
vn 0.0358 -0.9993 0.0077
vn 0.0305 0.9994 0.0137
vn 0.0358 0.9993 0.0077
vn -0.5988 0.7672 0.2297
vn 0.0370 0.9993 0.0050
vn 0.0261 0.9995 0.0177
vn 0.0370 -0.9993 0.0050
vn -0.7567 -0.0000 0.6538
vn -0.0835 0.9898 0.1158
vn 0.0255 0.9974 0.0674
vn -0.2235 0.9593 0.1724
vt 0.625000 0.500000
vt 0.375000 0.500000
vt 0.625000 0.750000
vt 0.375000 0.750000
vt 0.250000 0.500000
vt 0.625000 0.875000
vt 0.250000 0.750000
vt 0.625000 0.375000
vt 0.331583 0.750000
vt 0.668417 0.500000
vt 0.625000 0.456583
vt 0.331583 0.500000
vt 0.668417 0.750000
vt 0.668417 0.750000
vt 0.750000 0.750000
vt 0.625000 0.875000
vt 0.750000 0.500000
vt 0.625000 0.375000
vt 0.625000 0.456583
vt 0.668417 0.500000
vt 0.625000 0.500000
vt 0.375000 0.500000
vt 0.547963 0.456583
vt 0.452037 0.456583
vt 0.452037 0.375000
vt 0.625000 0.375000
vt 0.315494 0.500000
vt 0.668417 0.750208
vt 0.625000 0.809506
vt 0.315494 0.750000
vt 0.625000 0.440494
vt 0.668417 0.750208
vt 0.625000 0.809506
vt 0.684506 0.750000
vt 0.625000 0.440494
vt 0.684506 0.500000
vt 0.452037 0.440494
vt 0.547963 0.440494
vt 0.625000 0.500000
vt 0.375000 0.500000
vt 0.547963 0.500000
vt 0.452037 0.500000
vt 0.668417 0.500000
vt 0.625000 0.456583
vt 0.547963 0.500000
vt 0.315494 0.500000
vt 0.375000 0.440494
vt 0.250000 0.500000
vt 0.375000 0.375000
vt 0.625000 0.440494
vt 0.452037 0.500000
vt 0.331583 0.500000
vt 0.375000 0.456583
vt 0.547963 0.375000
vt 0.625000 0.500000
vt 0.375000 0.500000
vt 0.547963 0.500000
vt 0.452037 0.500000
vt 0.547963 0.375000
vt 0.452037 0.375000
vt 0.547963 0.456583
vt 0.452037 0.456583
vt 0.547963 0.440494
vt 0.452037 0.440494
vt 0.547963 0.500000
vt 0.452037 0.500000
vt 0.625000 0.750000
vt 0.375000 0.750000
vt 0.331583 0.750000
vt 0.668417 0.750208
vt 0.625000 0.809506
vt 0.625000 0.875000
vt 0.315494 0.750000
vt 0.668417 0.750000
vt 0.250000 0.750000
vt 0.375000 0.000000
vt 0.125000 0.750000
vt 0.375000 1.000000
vt 0.625000 0.000000
vt 0.875000 0.750000
vt 0.625000 1.000000
vt 0.375000 0.250000
vt 0.125000 0.500000
vt 0.625000 0.250000
vt 0.875000 0.500000
vt 0.375000 0.750000
vt 0.625000 0.750000
vt 0.375000 0.500000
vt 0.625000 0.500000
vt 0.412671 0.787671
vt 0.587329 0.787671
vt 0.587329 0.962329
vt 0.412671 0.962329
vt 0.587329 0.787671
vt 0.412671 0.787671
vt 0.412671 0.962329
vt 0.587329 0.962329
vt 0.434440 0.809440
vt 0.565560 0.809440
vt 0.565560 0.940560
vt 0.434440 0.940560
vt 0.549659 0.825341
vt 0.450341 0.825341
vt 0.450341 0.924659
vt 0.549659 0.924659
vt 0.565560 0.809440
vt 0.434440 0.809440
vt 0.434440 0.940560
vt 0.565560 0.940560
vt 0.549659 0.825341
vt 0.450341 0.825341
vt 0.450341 0.924659
vt 0.549659 0.924659
vt 0.470130 0.845130
vt 0.529870 0.845130
vt 0.529870 0.904870
vt 0.470130 0.904870
vt 0.515414 0.859586
vt 0.484586 0.859586
vt 0.484586 0.890414
vt 0.515414 0.890414
vt 0.529870 0.845130
vt 0.470130 0.845130
vt 0.470130 0.904870
vt 0.529870 0.904870
vt 0.515414 0.859586
vt 0.484586 0.859586
vt 0.484586 0.890414
vt 0.515414 0.890414
vt 0.625000 0.500000
vt 0.375000 0.500000
vt 0.625000 0.750000
vt 0.375000 0.750000
vt 0.331583 0.750000
vt 0.668417 0.500000
vt 0.625000 0.456583
vt 0.331583 0.500000
vt 0.668417 0.750000
vt 0.668417 0.750000
vt 0.625000 0.456583
vt 0.668417 0.500000
vt 0.625000 0.500000
vt 0.375000 0.500000
vt 0.547963 0.456583
vt 0.452037 0.456583
vt 0.315494 0.500000
vt 0.668417 0.750208
vt 0.625000 0.809506
vt 0.315494 0.750000
vt 0.625000 0.440494
vt 0.668417 0.750208
vt 0.625000 0.809506
vt 0.684506 0.750000
vt 0.625000 0.440494
vt 0.684506 0.500000
vt 0.452037 0.440494
vt 0.547963 0.440494
vt 0.625000 0.500000
vt 0.375000 0.500000
vt 0.547963 0.500000
vt 0.452037 0.500000
vt 0.668417 0.500000
vt 0.625000 0.456583
vt 0.547963 0.500000
vt 0.315494 0.500000
vt 0.375000 0.440494
vt 0.625000 0.440494
vt 0.452037 0.500000
vt 0.331583 0.500000
vt 0.375000 0.456583
vt 0.625000 0.500000
vt 0.375000 0.500000
vt 0.547963 0.500000
vt 0.452037 0.500000
vt 0.547963 0.456583
vt 0.452037 0.456583
vt 0.547963 0.440494
vt 0.452037 0.440494
vt 0.547963 0.500000
vt 0.452037 0.500000
vt 0.375000 0.000000
vt 0.125000 0.750000
vt 0.375000 1.000000
vt 0.625000 0.000000
vt 0.875000 0.750000
vt 0.625000 1.000000
vt 0.375000 0.250000
vt 0.125000 0.500000
vt 0.625000 0.250000
vt 0.875000 0.500000
vt 0.375000 0.750000
vt 0.625000 0.750000
vt 0.375000 0.500000
vt 0.625000 0.500000
vt 0.412671 0.787671
vt 0.587329 0.787671
vt 0.587329 0.962329
vt 0.412671 0.962329
vt 0.587329 0.787671
vt 0.412671 0.787671
vt 0.412671 0.962329
vt 0.587329 0.962329
vt 0.434440 0.809440
vt 0.565560 0.809440
vt 0.565560 0.940560
vt 0.434440 0.940560
vt 0.549659 0.825341
vt 0.450341 0.825341
vt 0.450341 0.924659
vt 0.549659 0.924659
vt 0.565560 0.809440
vt 0.434440 0.809440
vt 0.434440 0.940560
vt 0.565560 0.940560
vt 0.549659 0.825341
vt 0.450341 0.825341
vt 0.450341 0.924659
vt 0.549659 0.924659
vt 0.470130 0.845130
vt 0.529870 0.845130
vt 0.529870 0.904870
vt 0.470130 0.904870
vt 0.515414 0.859586
vt 0.484586 0.859586
vt 0.484586 0.890414
vt 0.515414 0.890414
vt 0.529870 0.845130
vt 0.470130 0.845130
vt 0.470130 0.904870
vt 0.529870 0.904870
vt 0.515414 0.859586
vt 0.484586 0.859586
vt 0.484586 0.890414
vt 0.515414 0.890414
s 1
usemtl STEEL_GRAY
f 11/12/1 2/2/1 4/4/1 9/9/1
f 2/2/2 1/1/2 3/3/3 4/4/4
f 10/10/5 1/1/6 17/21/7 37/43/7
f 12/13/8 10/10/5 16/20/9 13/14/9
f 1/1/6 10/10/5 12/13/8 3/3/10
f 23/27/1 5/5/1 40/48/1 39/46/1
f 23/27/1 11/12/1 9/9/1 25/30/1
f 26/31/15 8/8/15 15/18/15 28/35/15
f 24/28/16 12/13/8 13/14/9 27/32/14
f 38/45/17 35/41/18 55/65/18 47/57/17
f 19/23/19 38/45/17 47/57/17 51/61/19
f 26/31/7 10/11/5 37/44/7 41/50/7
f 17/21/7 1/1/6 33/39/7 45/55/7
f 2/2/1 11/12/1 43/52/1 18/22/1
f 8/8/9 26/31/7 41/50/7 22/26/9
f 42/51/20 20/24/21 52/62/21 48/58/20
f 6/6/22 24/29/16 27/33/14 14/16/13
f 10/11/15 26/31/15 28/35/15 16/19/15
f 5/5/1 23/27/1 25/30/1 7/7/1
f 11/12/1 23/27/1 39/46/1 43/52/1
f 33/39/24 34/40/24 46/56/24 45/55/24
f 1/1/25 2/2/25 34/40/25 33/39/25
f 35/41/26 36/42/26 56/66/26 55/65/26
f 2/2/1 18/22/1 46/56/1 34/40/1
f 38/45/15 19/23/15 37/44/15 17/21/15
f 21/25/15 29/37/15 39/47/15 40/49/15
f 19/23/15 30/38/15 41/50/15 37/44/15
f 20/24/15 42/51/15 18/22/15 43/53/15
f 29/37/15 20/24/15 43/53/15 39/47/15
f 30/38/15 44/54/15 22/26/15 41/50/15
f 36/42/15 35/41/15 45/55/15 46/56/15
f 35/41/15 38/45/15 17/21/15 45/55/15
f 42/51/15 36/42/15 46/56/15 18/22/15
f 20/24/21 29/37/27 54/64/27 52/62/21
f 29/37/27 21/25/28 50/60/28 54/64/27
f 36/42/29 42/51/20 48/58/20 56/66/29
f 44/54/30 30/38/31 53/63/31 49/59/30
f 30/38/31 19/23/19 51/61/19 53/63/31
f 4/4/4 3/3/3 57/67/32 58/68/32
f 58/68/9 57/67/9 63/74/9 60/71/9 61/72/9 64/75/9 62/73/9 59/69/9
f 12/13/8 24/28/16 60/70/33 63/74/34
f 25/30/1 9/9/1 59/69/1 62/73/1
f 24/29/16 6/6/22 61/72/35 60/71/33
f 7/7/1 25/30/1 62/73/1 64/75/1
f 3/3/10 12/13/8 63/74/34 57/67/36
f 9/9/1 4/4/1 58/68/1 59/69/1
s 0
f 65/76/26 66/79/26 68/84/26 67/82/26
f 67/82/15 68/84/15 72/89/15 71/88/15
f 71/88/24 72/89/24 70/87/24 69/86/24
f 75/92/24 76/93/24 79/96/24 80/97/24
f 67/83/1 71/88/1 69/86/1 65/77/1
f 72/89/9 68/85/9 66/80/9 70/87/9
f 69/86/37 70/87/37 74/91/37 73/90/37
f 70/87/25 66/81/25 75/92/25 74/91/25
f 66/81/38 65/78/38 76/93/38 75/92/38
f 65/78/39 69/86/39 73/90/39 76/93/39
f 81/98/24 82/99/24 89/106/24 90/107/24
f 76/93/9 73/90/9 78/95/9 79/96/9
f 74/91/1 75/92/1 80/97/1 77/94/1
f 73/90/26 74/91/26 77/94/26 78/95/26
f 85/102/1 88/105/1 96/113/1 93/110/1
f 83/100/26 84/101/26 91/108/26 92/109/26
f 84/101/1 81/98/1 90/107/1 91/108/1
f 82/99/9 83/100/9 92/109/9 89/106/9
f 85/102/25 86/103/25 90/107/25 89/106/25
f 86/103/25 87/104/25 91/108/25 90/107/25
f 88/105/25 85/102/25 89/106/25 92/109/25
f 87/104/25 88/105/25 92/109/25 91/108/25
f 98/115/9 99/116/9 108/125/9 105/122/9
f 86/103/26 85/102/26 93/110/26 94/111/26
f 88/105/24 87/104/24 95/112/24 96/113/24
f 87/104/9 86/103/9 94/111/9 95/112/9
f 104/121/24 103/120/24 111/128/24 112/129/24
f 97/114/24 98/115/24 105/122/24 106/123/24
f 99/116/26 100/117/26 107/124/26 108/125/26
f 100/117/1 97/114/1 106/123/1 107/124/1
f 101/118/25 102/119/25 106/123/25 105/122/25
f 102/119/25 103/120/25 107/124/25 106/123/25
f 104/121/25 101/118/25 105/122/25 108/125/25
f 103/120/25 104/121/25 108/125/25 107/124/25
f 103/120/9 102/119/9 110/127/9 111/128/9
f 101/118/1 104/121/1 112/129/1 109/126/1
f 102/119/26 101/118/26 109/126/26 110/127/26
s 1
f 119/137/1 117/134/1 116/133/1 114/131/1
f 114/131/40 116/133/41 115/132/42 113/130/40
f 118/135/43 139/162/44 123/142/44 113/130/45
f 120/138/46 121/139/9 122/141/9 118/135/43
f 113/130/45 115/132/47 120/138/46 118/135/43
f 127/146/1 141/165/1 40/48/1 5/5/1
f 127/146/1 129/149/1 117/134/1 119/137/1
f 130/150/15 132/154/15 15/18/15 8/8/15
f 128/147/50 131/151/49 121/139/9 120/138/46
f 140/164/51 147/173/51 153/179/52 137/160/52
f 125/144/53 149/175/53 147/173/51 140/164/51
f 130/150/44 142/167/44 139/163/44 118/136/43
f 123/142/44 145/171/44 135/158/44 113/130/45
f 114/131/1 124/143/1 144/169/1 119/137/1
f 8/8/9 22/26/9 142/167/44 130/150/44
f 143/168/54 148/174/54 150/176/55 126/145/55
f 6/6/22 14/16/13 131/152/49 128/148/50
f 118/136/15 122/140/15 132/154/15 130/150/15
f 5/5/1 7/7/1 129/149/1 127/146/1
f 119/137/1 144/169/1 141/165/1 127/146/1
f 135/158/26 145/171/26 146/172/26 136/159/26
f 113/130/25 135/158/25 136/159/25 114/131/25
f 137/160/24 153/179/24 154/180/24 138/161/24
f 114/131/1 136/159/1 146/172/1 124/143/1
f 140/164/15 123/142/15 139/163/15 125/144/15
f 21/25/15 40/49/15 141/166/15 133/156/15
f 125/144/15 139/163/15 142/167/15 134/157/15
f 126/145/15 144/170/15 124/143/15 143/168/15
f 133/156/15 141/166/15 144/170/15 126/145/15
f 134/157/15 142/167/15 22/26/15 44/54/15
f 138/161/15 146/172/15 145/171/15 137/160/15
f 137/160/15 145/171/15 123/142/15 140/164/15
f 143/168/15 124/143/15 146/172/15 138/161/15
f 126/145/55 150/176/55 152/178/57 133/156/57
f 133/156/57 152/178/57 50/60/28 21/25/28
f 138/161/58 154/180/58 148/174/54 143/168/54
f 44/54/30 49/59/30 151/177/59 134/157/59
f 134/157/59 151/177/59 149/175/53 125/144/53
f 116/133/41 58/68/60 57/67/60 115/132/42
f 120/138/46 63/74/61 60/70/62 128/147/50
f 129/149/1 62/73/1 59/69/1 117/134/1
f 128/148/50 60/71/62 61/72/35 6/6/22
f 7/7/1 64/75/1 62/73/1 129/149/1
f 115/132/47 57/67/63 63/74/61 120/138/46
f 117/134/1 59/69/1 58/68/1 116/133/1
s 0
f 155/181/24 157/187/24 158/189/24 156/184/24
f 157/187/15 161/193/15 162/194/15 158/189/15
f 161/193/26 159/191/26 160/192/26 162/194/26
f 165/197/26 170/202/26 169/201/26 166/198/26
f 157/188/1 155/182/1 159/191/1 161/193/1
f 162/194/9 160/192/9 156/185/9 158/190/9
f 159/191/38 163/195/38 164/196/38 160/192/38
f 160/192/25 164/196/25 165/197/25 156/186/25
f 156/186/37 165/197/37 166/198/37 155/183/37
f 155/183/39 166/198/39 163/195/39 159/191/39
f 171/203/26 180/212/26 179/211/26 172/204/26
f 166/198/9 169/201/9 168/200/9 163/195/9
f 164/196/1 167/199/1 170/202/1 165/197/1
f 163/195/24 168/200/24 167/199/24 164/196/24
f 175/207/1 183/215/1 186/218/1 178/210/1
f 173/205/24 182/214/24 181/213/24 174/206/24
f 174/206/1 181/213/1 180/212/1 171/203/1
f 172/204/9 179/211/9 182/214/9 173/205/9
f 175/207/25 179/211/25 180/212/25 176/208/25
f 176/208/25 180/212/25 181/213/25 177/209/25
f 178/210/25 182/214/25 179/211/25 175/207/25
f 177/209/25 181/213/25 182/214/25 178/210/25
f 188/220/9 195/227/9 198/230/9 189/221/9
f 176/208/24 184/216/24 183/215/24 175/207/24
f 178/210/26 186/218/26 185/217/26 177/209/26
f 177/209/9 185/217/9 184/216/9 176/208/9
f 194/226/26 202/234/26 201/233/26 193/225/26
f 187/219/26 196/228/26 195/227/26 188/220/26
f 189/221/24 198/230/24 197/229/24 190/222/24
f 190/222/1 197/229/1 196/228/1 187/219/1
f 191/223/25 195/227/25 196/228/25 192/224/25
f 192/224/25 196/228/25 197/229/25 193/225/25
f 194/226/25 198/230/25 195/227/25 191/223/25
f 193/225/25 197/229/25 198/230/25 194/226/25
f 193/225/9 201/233/9 200/232/9 192/224/9
f 191/223/1 199/231/1 202/234/1 194/226/1
f 192/224/24 200/232/24 199/231/24 191/223/24
s 1
usemtl Material
f 28/36/11 15/17/12 14/15/13 27/34/14
f 16/20/23 28/36/11 27/34/14 13/14/23
f 132/155/48 131/153/49 14/15/13 15/17/12
f 122/141/56 121/139/56 131/153/49 132/155/48
usemtl Material.001
f 52/62/15 51/61/15 47/57/15 48/58/15
f 54/64/15 53/63/15 51/61/15 52/62/15
f 50/60/15 49/59/15 53/63/15 54/64/15
f 48/58/15 47/57/15 55/65/15 56/66/15
s 0
f 78/95/25 77/94/25 82/99/25 81/98/25
f 77/94/25 80/97/25 83/100/25 82/99/25
f 80/97/25 79/96/25 84/101/25 83/100/25
f 79/96/25 78/95/25 81/98/25 84/101/25
f 94/111/25 93/110/25 98/115/25 97/114/25
f 93/110/25 96/113/25 99/116/25 98/115/25
f 96/113/25 95/112/25 100/117/25 99/116/25
f 95/112/25 94/111/25 97/114/25 100/117/25
f 110/127/25 109/126/25 112/129/25 111/128/25
s 1
f 150/176/15 148/174/15 147/173/15 149/175/15
f 152/178/15 150/176/15 149/175/15 151/177/15
f 50/60/15 152/178/15 151/177/15 49/59/15
f 148/174/15 154/180/15 153/179/15 147/173/15
s 0
f 168/200/25 171/203/25 172/204/25 167/199/25
f 167/199/25 172/204/25 173/205/25 170/202/25
f 170/202/25 173/205/25 174/206/25 169/201/25
f 169/201/25 174/206/25 171/203/25 168/200/25
f 184/216/25 187/219/25 188/220/25 183/215/25
f 183/215/25 188/220/25 189/221/25 186/218/25
f 186/218/25 189/221/25 190/222/25 185/217/25
f 185/217/25 190/222/25 187/219/25 184/216/25
f 200/232/25 201/233/25 202/234/25 199/231/25
l 32 31
