# Blender 3.3.0
# www.blender.org
mtllib ranged enemy.mtl
o Cube
v 1.401510 1.401510 -1.401510
v 1.401510 -1.401510 -1.401510
v 0.658784 0.658785 1.905829
v 0.658784 -0.658784 1.905829
v -1.401510 1.401510 -1.401510
v -1.401510 -1.401510 -1.401510
v -0.658784 0.658784 1.905829
v -0.658784 -0.658784 1.905829
v -1.708630 -1.708631 -0.000000
v 0.000000 -1.708630 -1.708630
v 1.708630 0.000000 -1.708631
v -0.805586 -0.000000 2.056522
v 0.805586 -0.000000 2.056522
v -1.708631 -0.000000 -1.708630
v 0.000000 0.805586 2.056522
v 1.708630 1.708630 0.000000
v -0.000000 -0.805586 2.056522
v -1.708630 1.708630 -0.000000
v 0.000000 1.708630 -1.708630
v 1.708630 -1.708630 0.000000
v -0.000000 2.353152 -0.000000
v -2.353152 0.000000 -0.000000
v 0.000000 -2.353152 0.000000
v 2.353152 0.000000 -0.000000
v 0.000000 0.000000 -2.353152
v -1.401510 -1.401510 1.401510
v -1.708630 -0.000000 1.708631
v -1.401510 1.401510 1.401510
v 1.401510 1.401510 1.401510
v 1.708631 0.000000 1.708630
v 1.401510 -1.401510 1.401510
v -0.000000 1.708631 1.708631
v -0.000000 -1.708630 1.708630
v 0.805586 -0.000000 3.842260
v 0.000000 0.383630 3.842260
v -0.805586 -0.000000 3.842260
v -0.000000 -0.383630 3.842260
v -0.313721 -0.313721 3.842260
v -0.313721 0.313721 3.842260
v 0.313721 0.313721 3.842260
v 0.313721 -0.313721 3.842260
v -0.658785 -0.658785 3.842260
v -0.383630 -0.000000 3.842260
v -0.658784 0.658784 3.842260
v 0.658784 0.658785 3.842260
v 0.383630 -0.000000 3.842260
v 0.658784 -0.658784 3.842260
v -0.000000 0.805586 3.842260
v -0.000000 -0.805586 3.842260
v 0.383630 -0.000000 2.633329
v -0.000000 -0.000000 2.633329
v 0.000000 0.383630 2.633329
v -0.383630 -0.000000 2.633329
v -0.000000 -0.383630 2.633329
v -0.313721 -0.313721 2.633329
v -0.313721 0.313721 2.633329
v 0.313721 0.313721 2.633329
v 0.313721 -0.313721 2.633329
v 0.658784 0.658785 3.221899
v 0.658784 0.658785 2.633329
v 0.000000 0.805586 2.633329
v -0.000000 0.805586 3.221899
v -0.658785 -0.658785 3.221899
v -0.658784 -0.658784 2.633329
v -0.000000 -0.805586 2.633329
v -0.000000 -0.805586 3.221899
v 0.805586 -0.000000 3.221899
v 0.805586 -0.000000 2.633329
v -0.805586 -0.000000 3.221899
v -0.805586 -0.000000 2.633329
v 0.658784 -0.658784 2.633329
v 0.658784 -0.658784 3.221899
v -0.658784 0.658784 2.633329
v -0.658784 0.658784 3.221899
vn 0.3061 0.9015 -0.3061
vn -0.3061 0.9015 -0.3061
vn -0.3061 0.9015 0.3061
vn 0.3061 0.9015 0.3061
vn -0.9761 -0.2175 -0.0000
vn 0.9761 0.2175 -0.0000
vn 0.2175 0.9761 -0.0000
vn -0.2175 -0.9761 -0.0000
vn -0.9015 -0.3061 0.3061
vn -0.9015 0.3061 0.3061
vn -0.9015 0.3061 -0.3061
vn -0.9015 -0.3061 -0.3061
vn -0.3061 -0.9015 -0.3061
vn 0.3061 -0.9015 -0.3061
vn 0.3061 -0.9015 0.3061
vn -0.3061 -0.9015 0.3061
vn 0.9015 -0.3061 -0.3061
vn 0.9015 0.3061 -0.3061
vn 0.9015 0.3061 0.3061
vn 0.9015 -0.3061 0.3061
vn -0.3061 -0.3061 -0.9015
vn -0.3061 0.3061 -0.9015
vn 0.3061 0.3061 -0.9015
vn 0.3061 -0.3061 -0.9015
vn -0.3414 -0.2749 0.8988
vn -0.3414 0.2749 0.8988
vn 0.3414 0.2749 0.8988
vn 0.3414 -0.2749 0.8988
vn 0.2749 0.3414 0.8988
vn -0.2749 0.3414 0.8988
vn -0.2749 -0.3414 0.8988
vn 0.2749 -0.3414 0.8988
vn -0.9761 0.2175 -0.0000
vn 0.2175 -0.9761 -0.0000
vn -0.2175 0.9761 -0.0000
vn 0.9761 -0.2175 -0.0000
vn -0.0000 -0.0000 1.0000
vt 0.625000 0.500000
vt 0.375000 0.500000
vt 0.551691 0.823309
vt 0.448309 0.823309
vt 0.875000 0.500000
vt 0.625000 0.250000
vt 0.125000 0.500000
vt 0.375000 0.250000
vt 0.551691 0.926691
vt 0.448309 0.926691
vt 0.375000 0.125000
vt 0.125000 0.625000
vt 0.250000 0.500000
vt 0.375000 0.375000
vt 0.500000 0.500000
vt 0.499841 0.933776
vt 0.500159 0.816224
vt 0.500000 0.250000
vt 0.558776 0.874841
vt 0.625000 0.625000
vt 0.441224 0.875159
vt 0.875000 0.625000
vt 0.625000 0.125000
vt 0.750000 0.500000
vt 0.625000 0.375000
vt 0.375000 0.625000
vt 0.750000 0.625000
vt 0.500000 0.125000
vt 0.250000 0.625000
vt 0.500000 0.625000
vt 0.500000 0.375000
vt 0.375000 0.000000
vt 0.125000 0.750000
vt 0.375000 1.000000
vt 0.500000 0.000000
vt 0.500000 1.000000
vt 0.875000 0.750000
vt 0.625000 0.000000
vt 0.625000 1.000000
vt 0.625000 0.750000
vt 0.500000 0.750000
vt 0.375000 0.750000
vt 0.750000 0.750000
vt 0.625000 0.875000
vt 0.250000 0.750000
vt 0.375000 0.875000
vt 0.500159 0.816224
vt 0.527990 0.874924
vt 0.499841 0.933776
vt 0.472010 0.875076
vt 0.476327 0.898674
vt 0.523603 0.898603
vt 0.523674 0.851326
vt 0.476397 0.851397
vt 0.448309 0.926691
vt 0.499924 0.902990
vt 0.551691 0.926691
vt 0.551691 0.823309
vt 0.500076 0.847010
vt 0.448309 0.823309
vt 0.558776 0.874841
vt 0.441224 0.875159
vt 0.500076 0.847010
vt 0.500000 0.875000
vt 0.527990 0.874924
vt 0.499924 0.902990
vt 0.472010 0.875076
vt 0.476327 0.898674
vt 0.523603 0.898603
vt 0.523674 0.851326
vt 0.476397 0.851397
vt 0.551691 0.823309
vt 0.551691 0.823309
vt 0.558776 0.874841
vt 0.558776 0.874841
vt 0.448309 0.926691
vt 0.448309 0.926691
vt 0.441224 0.875159
vt 0.441224 0.875159
vt 0.500159 0.816224
vt 0.500159 0.816224
vt 0.499841 0.933776
vt 0.499841 0.933776
vt 0.448309 0.823309
vt 0.448309 0.823309
vt 0.551691 0.926691
vt 0.551691 0.926691
s 0
usemtl Material
f 1/1/1 19/24/1 21/27/1 16/20/1
f 19/24/2 5/5/2 18/22/2 21/27/2
f 21/27/3 18/22/3 28/37/3 32/43/3
f 16/20/4 21/27/4 32/43/4 29/40/4
f 69/82/5 63/76/5 42/55/5 36/49/5
f 67/80/6 59/72/6 45/58/6 34/47/6
f 59/72/7 62/75/7 48/61/7 45/58/7
f 63/76/8 66/79/8 49/62/8 42/55/8
f 26/32/9 27/35/9 22/28/9 9/11/9
f 27/35/10 28/38/10 18/23/10 22/28/10
f 22/28/11 18/23/11 5/6/11 14/18/11
f 9/11/12 22/28/12 14/18/12 6/8/12
f 6/7/13 10/13/13 23/29/13 9/12/13
f 10/13/14 2/2/14 20/26/14 23/29/14
f 23/29/15 20/26/15 31/42/15 33/45/15
f 9/12/16 23/29/16 33/45/16 26/33/16
f 2/2/17 11/15/17 24/30/17 20/26/17
f 11/15/18 1/1/18 16/20/18 24/30/18
f 24/30/19 16/20/19 29/40/19 30/41/19
f 20/26/20 24/30/20 30/41/20 31/42/20
f 6/8/21 14/18/21 25/31/21 10/14/21
f 14/18/22 5/6/22 19/25/22 25/31/22
f 25/31/23 19/25/23 1/1/23 11/15/23
f 10/14/24 25/31/24 11/15/24 2/2/24
f 8/10/25 12/16/25 27/36/25 26/34/25
f 12/16/26 7/9/26 28/39/26 27/36/26
f 3/3/27 13/17/27 30/41/27 29/40/27
f 13/17/28 4/4/28 31/42/28 30/41/28
f 15/19/29 3/3/29 29/40/29 32/44/29
f 7/9/30 15/19/30 32/44/30 28/39/30
f 17/21/31 8/10/31 26/34/31 33/46/31
f 4/4/32 17/21/32 33/46/32 31/42/32
f 66/79/34 72/85/34 47/60/34 49/62/34
f 62/75/35 74/87/35 44/57/35 48/61/35
f 72/85/36 67/80/36 34/47/36 47/60/36
f 74/87/33 69/82/33 36/49/33 44/57/33
f 38/51/37 43/56/37 36/49/37 42/55/37
f 43/56/37 39/52/37 44/57/37 36/49/37
f 40/53/37 46/59/37 34/47/37 45/58/37
f 46/59/37 41/54/37 47/60/37 34/47/37
f 35/48/37 40/53/37 45/58/37 48/61/37
f 39/52/37 35/48/37 48/61/37 44/57/37
f 37/50/37 38/51/37 42/55/37 49/62/37
f 41/54/37 37/50/37 49/62/37 47/60/37
f 7/9/33 12/16/33 70/83/33 73/86/33
f 4/4/36 13/17/36 68/81/36 71/84/36
f 15/19/35 7/9/35 73/86/35 61/74/35
f 17/21/34 4/4/34 71/84/34 65/78/34
f 8/10/8 17/21/8 65/78/8 64/77/8
f 3/3/7 15/19/7 61/74/7 60/73/7
f 13/17/6 3/3/6 60/73/6 68/81/6
f 12/16/5 8/10/5 64/77/5 70/83/5
usemtl glowing_blue
f 41/54/33 46/59/33 50/63/33 58/71/33
f 35/48/34 39/52/34 56/69/34 52/65/34
f 37/50/35 41/54/35 58/71/35 54/67/35
f 43/56/6 38/51/6 55/68/6 53/66/6
f 58/71/37 50/63/37 51/64/37 54/67/37
f 50/63/37 57/70/37 52/65/37 51/64/37
f 51/64/37 52/65/37 56/69/37 53/66/37
f 54/67/37 51/64/37 53/66/37 55/68/37
f 39/52/36 43/56/36 53/66/36 56/69/36
f 38/51/7 37/50/7 54/67/7 55/68/7
f 40/53/8 35/48/8 52/65/8 57/70/8
f 46/59/5 40/53/5 57/70/5 50/63/5
f 73/86/33 70/83/33 69/82/33 74/87/33
f 71/84/36 68/81/36 67/80/36 72/85/36
f 61/74/35 73/86/35 74/87/35 62/75/35
f 65/78/34 71/84/34 72/85/34 66/79/34
f 64/77/8 65/78/8 66/79/8 63/76/8
f 60/73/7 61/74/7 62/75/7 59/72/7
f 68/81/6 60/73/6 59/72/6 67/80/6
f 70/83/5 64/77/5 63/76/5 69/82/5
